<svg viewBox="0 0 400 500" fill="none" xmlns="http://www.w3.org/2000/svg">
<rect width="400" height="500" rx="16" fill="url(#grad)"/>
  <defs><linearGradient id="grad" x1="0" y1="0" x2="0" y2="1"><stop offset="0%" stop-color="#2A2A2A"/><stop offset="100%" stop-color="#0A0A0A"/></linearGradient></defs>
  <path d="M48 280 Q48 248,72 232 L240 224 Q280 224,304 208 L328 200 Q352 192,360 208 L360 240 Q360 272,328 280 Z" fill="#1A1A1A" stroke="rgba(255,255,255,0.18)" stroke-width="2"/>
  <path d="M56 280 Q56 296,80 296 L312 296 Q336 296,336 280" fill="rgba(255,255,255,0.05)" stroke="rgba(255,255,255,0.12)" stroke-width="2"/>
  <path d="M216 224 L216 168 Q216 144,240 136 L280 128 Q296 128,304 144 L312 192" fill="#1A1A1A" stroke="rgba(255,255,255,0.18)" stroke-width="2"/>
  <path d="M120 224 L120 160 Q120 144,144 144 L192 144 Q216 144,216 168 L216 224" fill="#1A1A1A" stroke="rgba(255,255,255,0.12)" stroke-width="1.5"/>
  <circle cx="248" cy="178" r="5" fill="rgba(255,255,255,0.25)"/>
  <circle cx="272" cy="172" r="5" fill="rgba(255,255,255,0.25)"/>
  <circle cx="296" cy="178" r="5" fill="rgba(255,255,255,0.25)"/>
  <path d="M56 264 L336 264" stroke="rgba(255,255,255,0.1)" stroke-width="1.5"/>
  <path d="M72 288 Q200 296,328 288" stroke="rgba(255,255,255,0.1)" stroke-width="2.5" fill="none"/>
  <path d="M330 230 L350 220 L355 225 L335 235 Z" fill="rgba(255,255,255,0.15)"/>
  <path d="M60 260 Q80 250,120 248" stroke="rgba(255,255,255,0.06)" stroke-width="1.5" fill="none"/>
  <rect x="60" y="380" width="280" height="1" fill="rgba(255,255,255,0.06)"/>
  <text x="200" y="415" text-anchor="middle" fill="rgba(255,255,255,0.6)" font-family="Inter, system-ui, sans-serif" font-size="18" font-weight="600">Ghost Sole</text>
  <text x="200" y="440" text-anchor="middle" fill="rgba(255,255,255,0.3)" font-family="Inter, system-ui, sans-serif" font-size="13">Sneakers</text>
  <text x="200" y="470" text-anchor="middle" fill="rgba(255,255,255,0.12)" font-family="Inter, system-ui, sans-serif" font-size="11" letter-spacing="3">ZERO LABEL</text>
</svg>